<svg xmlns="http://www.w3.org/2000/svg" xmlns:xlink="http://www.w3.org/1999/xlink" width="500" zoomAndPan="magnify" viewBox="0 0 375 119.999999" height="160" preserveAspectRatio="xMidYMid meet" version="1.0"><defs><g/></defs><g fill="#000000" fill-opacity="1"><g transform="translate(102.475259, 79.874998)"><g><path d="M 53.203125 -41.203125 C 53.203125 -37.941406 52.425781 -35.082031 50.875 -32.625 C 49.332031 -30.175781 47.144531 -28.472656 44.3125 -27.515625 L 46.234375 -26.5625 C 48.421875 -25.382812 49.859375 -23.726562 50.546875 -21.59375 C 51.242188 -19.46875 51.59375 -16.800781 51.59375 -13.59375 L 51.59375 -8.234375 C 51.59375 -4.179688 52.445312 -1.941406 54.15625 -1.515625 L 54.15625 0 L 40.875 0 C 40.5625 -0.957031 40.285156 -2.207031 40.046875 -3.75 C 39.804688 -5.300781 39.6875 -6.769531 39.6875 -8.15625 L 39.59375 -14.40625 C 39.59375 -16.851562 39.164062 -18.648438 38.3125 -19.796875 C 37.46875 -20.941406 36.40625 -21.675781 35.125 -22 C 33.84375 -22.320312 32.1875 -22.484375 30.15625 -22.484375 L 17.84375 -22.484375 L 17.84375 0 L 6.078125 0 L 6.078125 -57.4375 L 35.765625 -57.4375 C 39.335938 -57.4375 42.441406 -56.6875 45.078125 -55.1875 C 47.722656 -53.695312 49.738281 -51.722656 51.125 -49.265625 C 52.507812 -46.816406 53.203125 -44.128906 53.203125 -41.203125 Z M 41.203125 -40 C 41.203125 -42.289062 40.46875 -44.113281 39 -45.46875 C 37.53125 -46.832031 35.570312 -47.515625 33.125 -47.515625 L 17.84375 -47.515625 L 17.84375 -32.15625 L 32.234375 -32.15625 C 35.222656 -32.15625 37.460938 -32.753906 38.953125 -33.953125 C 40.453125 -35.160156 41.203125 -37.175781 41.203125 -40 Z M 41.203125 -40 "/></g></g></g><g fill="#000000" fill-opacity="1"><g transform="translate(163.349653, 79.874998)"><g><path d="M 43.125 0 L 39.4375 -11.84375 L 18.234375 -11.84375 L 14.234375 0 L 1.59375 0 L 22.078125 -57.4375 L 35.921875 -57.4375 L 56.15625 0 Z M 36.078125 -21.765625 L 28.953125 -44.484375 L 28.796875 -44.484375 L 21.4375 -21.765625 Z M 36.078125 -21.765625 "/></g></g></g><g fill="#000000" fill-opacity="1"><g transform="translate(224.224047, 79.874998)"><g><path d="M 18.078125 -47.28125 L 18.078125 -34.3125 L 43.359375 -34.3125 L 43.359375 -24.15625 L 18.078125 -24.15625 L 18.078125 0 L 6.078125 0 L 6.078125 -57.4375 L 46.953125 -57.4375 L 46.953125 -47.28125 Z M 18.078125 -47.28125 "/></g></g></g><g fill="#000000" fill-opacity="1"><g transform="translate(276.219303, 79.874998)"><g><path d="M 30.484375 -47.28125 L 30.484375 0 L 18.484375 0 L 18.484375 -47.28125 L 1.125 -47.28125 L 1.125 -57.4375 L 47.84375 -57.4375 L 47.84375 -47.28125 Z M 30.484375 -47.28125 "/></g></g></g><g fill="#000000" fill-opacity="1"><g transform="translate(45.46463, 80.000023)"><g><path d="M 30.234375 -48.5625 C 25.804688 -48.5625 22.285156 -46.828125 19.671875 -43.359375 C 17.066406 -39.890625 15.765625 -34.957031 15.765625 -28.5625 C 15.765625 -22.53125 17.003906 -17.738281 19.484375 -14.1875 C 21.960938 -10.644531 25.46875 -8.875 30 -8.875 C 33.363281 -8.875 36.132812 -9.796875 38.3125 -11.640625 C 40.5 -13.484375 41.96875 -16.164062 42.71875 -19.6875 L 54.71875 -19.6875 C 53.382812 -12.851562 50.546875 -7.609375 46.203125 -3.953125 C 41.859375 -0.304688 36.378906 1.515625 29.765625 1.515625 C 24.429688 1.515625 19.789062 0.300781 15.84375 -2.125 C 11.894531 -4.550781 8.851562 -8.03125 6.71875 -12.5625 C 4.582031 -17.09375 3.515625 -22.453125 3.515625 -28.640625 C 3.515625 -34.828125 4.617188 -40.195312 6.828125 -44.75 C 9.046875 -49.3125 12.15625 -52.816406 16.15625 -55.265625 C 20.15625 -57.722656 24.769531 -58.953125 30 -58.953125 C 34.53125 -58.953125 38.609375 -58.070312 42.234375 -56.3125 C 45.867188 -54.5625 48.765625 -52.148438 50.921875 -49.078125 C 53.078125 -46.015625 54.34375 -42.535156 54.71875 -38.640625 L 42.71875 -38.640625 C 41.175781 -45.253906 37.015625 -48.5625 30.234375 -48.5625 Z M 30.234375 -48.5625 "/></g></g></g><g fill="#000000" fill-opacity="1"><g transform="translate(102.439187, 96.301454)"><g><path d="M 2.984375 1.90625 C 2.554688 1.90625 2.144531 1.851562 1.75 1.75 C 1.351562 1.644531 1.003906 1.488281 0.703125 1.28125 L 1.0625 0.34375 C 1.25 0.457031 1.441406 0.554688 1.640625 0.640625 C 1.847656 0.722656 2.054688 0.78125 2.265625 0.8125 C 2.484375 0.851562 2.695312 0.875 2.90625 0.875 C 3.382812 0.875 3.742188 0.765625 3.984375 0.546875 C 4.222656 0.335938 4.34375 0.015625 4.34375 -0.421875 L 4.34375 -1.234375 L 4.375 -1.234375 C 4.257812 -0.910156 4.050781 -0.648438 3.75 -0.453125 C 3.445312 -0.253906 3.09375 -0.15625 2.6875 -0.15625 C 2.238281 -0.15625 1.84375 -0.253906 1.5 -0.453125 C 1.164062 -0.660156 0.90625 -0.945312 0.71875 -1.3125 C 0.53125 -1.675781 0.4375 -2.101562 0.4375 -2.59375 C 0.4375 -3.082031 0.53125 -3.507812 0.71875 -3.875 C 0.90625 -4.25 1.164062 -4.535156 1.5 -4.734375 C 1.84375 -4.941406 2.238281 -5.046875 2.6875 -5.046875 C 3.09375 -5.046875 3.445312 -4.941406 3.75 -4.734375 C 4.0625 -4.535156 4.269531 -4.269531 4.375 -3.9375 L 4.34375 -3.9375 L 4.34375 -4.9375 L 5.59375 -4.9375 L 5.59375 -0.546875 C 5.59375 -0.0234375 5.488281 0.414062 5.28125 0.78125 C 5.082031 1.144531 4.785156 1.421875 4.390625 1.609375 C 4.003906 1.804688 3.535156 1.90625 2.984375 1.90625 Z M 3.03125 -1.140625 C 3.425781 -1.140625 3.738281 -1.269531 3.96875 -1.53125 C 4.195312 -1.800781 4.3125 -2.15625 4.3125 -2.59375 C 4.3125 -3.039062 4.195312 -3.394531 3.96875 -3.65625 C 3.738281 -3.914062 3.425781 -4.046875 3.03125 -4.046875 C 2.632812 -4.046875 2.316406 -3.914062 2.078125 -3.65625 C 1.847656 -3.394531 1.734375 -3.039062 1.734375 -2.59375 C 1.734375 -2.15625 1.847656 -1.800781 2.078125 -1.53125 C 2.316406 -1.269531 2.632812 -1.140625 3.03125 -1.140625 Z M 3.03125 -1.140625 "/></g></g></g><g fill="#000000" fill-opacity="1"><g transform="translate(109.736695, 96.301454)"><g><path d="M 2.390625 0.09375 C 2.023438 0.09375 1.703125 0.0234375 1.421875 -0.109375 C 1.140625 -0.242188 0.914062 -0.425781 0.75 -0.65625 C 0.59375 -0.894531 0.515625 -1.160156 0.515625 -1.453125 C 0.515625 -1.828125 0.613281 -2.117188 0.8125 -2.328125 C 1.007812 -2.546875 1.320312 -2.703125 1.75 -2.796875 C 2.1875 -2.898438 2.753906 -2.953125 3.453125 -2.953125 L 4.046875 -2.953125 L 4.046875 -2.203125 L 3.5 -2.203125 C 3.1875 -2.203125 2.921875 -2.1875 2.703125 -2.15625 C 2.484375 -2.132812 2.304688 -2.097656 2.171875 -2.046875 C 2.035156 -2.003906 1.9375 -1.9375 1.875 -1.84375 C 1.8125 -1.757812 1.78125 -1.65625 1.78125 -1.53125 C 1.78125 -1.300781 1.859375 -1.125 2.015625 -1 C 2.179688 -0.875 2.40625 -0.8125 2.6875 -0.8125 C 2.90625 -0.8125 3.101562 -0.863281 3.28125 -0.96875 C 3.46875 -1.070312 3.613281 -1.21875 3.71875 -1.40625 C 3.832031 -1.59375 3.890625 -1.796875 3.890625 -2.015625 L 3.890625 -3.140625 C 3.890625 -3.472656 3.800781 -3.707031 3.625 -3.84375 C 3.457031 -3.988281 3.1875 -4.0625 2.8125 -4.0625 C 2.539062 -4.0625 2.257812 -4.019531 1.96875 -3.9375 C 1.6875 -3.851562 1.390625 -3.722656 1.078125 -3.546875 L 0.71875 -4.4375 C 0.914062 -4.5625 1.132812 -4.664062 1.375 -4.75 C 1.625 -4.84375 1.882812 -4.914062 2.15625 -4.96875 C 2.425781 -5.019531 2.6875 -5.046875 2.9375 -5.046875 C 3.414062 -5.046875 3.816406 -4.96875 4.140625 -4.8125 C 4.460938 -4.664062 4.707031 -4.441406 4.875 -4.140625 C 5.039062 -3.847656 5.125 -3.460938 5.125 -2.984375 L 5.125 0 L 3.984375 0 L 3.984375 -1.03125 L 4.015625 -1.03125 C 3.941406 -0.8125 3.828125 -0.613281 3.671875 -0.4375 C 3.523438 -0.269531 3.34375 -0.140625 3.125 -0.046875 C 2.914062 0.046875 2.671875 0.09375 2.390625 0.09375 Z M 2.390625 0.09375 "/></g></g></g><g fill="#000000" fill-opacity="1"><g transform="translate(116.554398, 96.301454)"><g><path d="M 2.4375 0.09375 C 1.851562 0.09375 1.414062 -0.0546875 1.125 -0.359375 C 0.84375 -0.671875 0.703125 -1.125 0.703125 -1.71875 L 0.703125 -7.046875 L 2.015625 -7.046875 L 2.015625 -1.796875 C 2.015625 -1.609375 2.039062 -1.453125 2.09375 -1.328125 C 2.144531 -1.203125 2.222656 -1.101562 2.328125 -1.03125 C 2.429688 -0.96875 2.5625 -0.9375 2.71875 -0.9375 C 2.800781 -0.9375 2.882812 -0.941406 2.96875 -0.953125 C 3.050781 -0.960938 3.128906 -0.976562 3.203125 -1 L 3.234375 -0.015625 C 3.097656 0.0234375 2.96875 0.0507812 2.84375 0.0625 C 2.71875 0.0820312 2.582031 0.09375 2.4375 0.09375 Z M 2.4375 0.09375 "/></g></g></g><g fill="#000000" fill-opacity="1"><g transform="translate(120.893082, 96.301454)"><g><path d="M 2.4375 0.09375 C 1.851562 0.09375 1.414062 -0.0546875 1.125 -0.359375 C 0.84375 -0.671875 0.703125 -1.125 0.703125 -1.71875 L 0.703125 -7.046875 L 2.015625 -7.046875 L 2.015625 -1.796875 C 2.015625 -1.609375 2.039062 -1.453125 2.09375 -1.328125 C 2.144531 -1.203125 2.222656 -1.101562 2.328125 -1.03125 C 2.429688 -0.96875 2.5625 -0.9375 2.71875 -0.9375 C 2.800781 -0.9375 2.882812 -0.941406 2.96875 -0.953125 C 3.050781 -0.960938 3.128906 -0.976562 3.203125 -1 L 3.234375 -0.015625 C 3.097656 0.0234375 2.96875 0.0507812 2.84375 0.0625 C 2.71875 0.0820312 2.582031 0.09375 2.4375 0.09375 Z M 2.4375 0.09375 "/></g></g></g><g fill="#000000" fill-opacity="1"><g transform="translate(125.181778, 96.301454)"><g><path d="M 3.234375 0.09375 C 2.640625 0.09375 2.132812 -0.00390625 1.71875 -0.203125 C 1.300781 -0.410156 0.984375 -0.707031 0.765625 -1.09375 C 0.546875 -1.488281 0.4375 -1.945312 0.4375 -2.46875 C 0.4375 -2.96875 0.539062 -3.410156 0.75 -3.796875 C 0.957031 -4.179688 1.25 -4.484375 1.625 -4.703125 C 2.007812 -4.929688 2.457031 -5.046875 2.96875 -5.046875 C 3.445312 -5.046875 3.859375 -4.941406 4.203125 -4.734375 C 4.546875 -4.535156 4.8125 -4.242188 5 -3.859375 C 5.195312 -3.484375 5.296875 -3.035156 5.296875 -2.515625 L 5.296875 -2.125 L 1.484375 -2.125 L 1.484375 -2.90625 L 4.375 -2.90625 L 4.203125 -2.734375 C 4.203125 -3.203125 4.097656 -3.550781 3.890625 -3.78125 C 3.679688 -4.019531 3.382812 -4.140625 3 -4.140625 C 2.726562 -4.140625 2.488281 -4.078125 2.28125 -3.953125 C 2.082031 -3.828125 1.925781 -3.648438 1.8125 -3.421875 C 1.707031 -3.203125 1.65625 -2.925781 1.65625 -2.59375 L 1.65625 -2.5 C 1.65625 -2.132812 1.710938 -1.832031 1.828125 -1.59375 C 1.953125 -1.351562 2.132812 -1.175781 2.375 -1.0625 C 2.613281 -0.957031 2.910156 -0.90625 3.265625 -0.90625 C 3.523438 -0.90625 3.789062 -0.941406 4.0625 -1.015625 C 4.34375 -1.085938 4.597656 -1.207031 4.828125 -1.375 L 5.1875 -0.5 C 4.9375 -0.300781 4.632812 -0.148438 4.28125 -0.046875 C 3.925781 0.046875 3.578125 0.09375 3.234375 0.09375 Z M 3.234375 0.09375 "/></g></g></g><g fill="#000000" fill-opacity="1"><g transform="translate(131.889526, 96.301454)"><g><path d="M 0.703125 0 L 0.703125 -4.9375 L 1.921875 -4.9375 L 1.921875 -3.734375 L 1.875 -3.734375 C 1.976562 -4.117188 2.164062 -4.421875 2.4375 -4.640625 C 2.71875 -4.867188 3.078125 -4.992188 3.515625 -5.015625 L 3.984375 -5.0625 L 4.078125 -3.921875 L 3.265625 -3.84375 C 2.859375 -3.8125 2.546875 -3.679688 2.328125 -3.453125 C 2.117188 -3.234375 2.015625 -2.941406 2.015625 -2.578125 L 2.015625 0 Z M 0.703125 0 "/></g></g></g><g fill="#000000" fill-opacity="1"><g transform="translate(137.387794, 96.301454)"><g><path d="M 1.1875 1.796875 L 2.21875 -0.484375 L 2.21875 0.265625 L 0 -4.9375 L 1.375 -4.9375 L 2.8125 -1.203125 L 2.640625 -1.203125 L 4.09375 -4.9375 L 5.421875 -4.9375 L 2.53125 1.796875 Z M 1.1875 1.796875 "/></g></g></g><g fill="#000000" fill-opacity="1"><g transform="translate(143.795661, 96.301454)"><g/></g></g><g fill="#000000" fill-opacity="1"><g transform="translate(147.614543, 96.301454)"><g><path d="M 1.046875 0 L 1.046875 -3.953125 L 0.09375 -3.953125 L 0.09375 -4.9375 L 1.40625 -4.9375 L 1.046875 -4.59375 L 1.046875 -4.90625 C 1.046875 -5.601562 1.234375 -6.128906 1.609375 -6.484375 C 1.992188 -6.835938 2.570312 -7.035156 3.34375 -7.078125 L 3.890625 -7.109375 L 3.984375 -6.125 L 3.40625 -6.09375 C 3.164062 -6.070312 2.960938 -6.023438 2.796875 -5.953125 C 2.640625 -5.890625 2.523438 -5.789062 2.453125 -5.65625 C 2.378906 -5.519531 2.34375 -5.34375 2.34375 -5.125 L 2.34375 -4.8125 L 2.171875 -4.9375 L 3.734375 -4.9375 L 3.734375 -3.953125 L 2.34375 -3.953125 L 2.34375 0 Z M 1.046875 0 "/></g></g></g><g fill="#000000" fill-opacity="1"><g transform="translate(152.37303, 96.301454)"><g><path d="M 3 0.09375 C 2.476562 0.09375 2.023438 -0.0078125 1.640625 -0.21875 C 1.253906 -0.425781 0.957031 -0.722656 0.75 -1.109375 C 0.539062 -1.492188 0.4375 -1.945312 0.4375 -2.46875 C 0.4375 -3 0.539062 -3.453125 0.75 -3.828125 C 0.957031 -4.210938 1.253906 -4.507812 1.640625 -4.71875 C 2.023438 -4.9375 2.476562 -5.046875 3 -5.046875 C 3.53125 -5.046875 3.984375 -4.9375 4.359375 -4.71875 C 4.742188 -4.507812 5.039062 -4.210938 5.25 -3.828125 C 5.457031 -3.441406 5.5625 -2.988281 5.5625 -2.46875 C 5.5625 -1.945312 5.457031 -1.492188 5.25 -1.109375 C 5.039062 -0.722656 4.742188 -0.425781 4.359375 -0.21875 C 3.984375 -0.0078125 3.53125 0.09375 3 0.09375 Z M 3 -0.921875 C 3.394531 -0.921875 3.703125 -1.054688 3.921875 -1.328125 C 4.148438 -1.597656 4.265625 -1.984375 4.265625 -2.484375 C 4.265625 -2.984375 4.148438 -3.363281 3.921875 -3.625 C 3.703125 -3.882812 3.394531 -4.015625 3 -4.015625 C 2.613281 -4.015625 2.304688 -3.882812 2.078125 -3.625 C 1.847656 -3.363281 1.734375 -2.984375 1.734375 -2.484375 C 1.734375 -1.984375 1.847656 -1.597656 2.078125 -1.328125 C 2.304688 -1.054688 2.613281 -0.921875 3 -0.921875 Z M 3 -0.921875 "/></g></g></g><g fill="#000000" fill-opacity="1"><g transform="translate(159.370657, 96.301454)"><g><path d="M 0.703125 0 L 0.703125 -4.9375 L 1.921875 -4.9375 L 1.921875 -3.734375 L 1.875 -3.734375 C 1.976562 -4.117188 2.164062 -4.421875 2.4375 -4.640625 C 2.71875 -4.867188 3.078125 -4.992188 3.515625 -5.015625 L 3.984375 -5.0625 L 4.078125 -3.921875 L 3.265625 -3.84375 C 2.859375 -3.8125 2.546875 -3.679688 2.328125 -3.453125 C 2.117188 -3.234375 2.015625 -2.941406 2.015625 -2.578125 L 2.015625 0 Z M 0.703125 0 "/></g></g></g><g fill="#000000" fill-opacity="1"><g transform="translate(164.568998, 96.301454)"><g/></g></g><g fill="#000000" fill-opacity="1"><g transform="translate(168.38788, 96.301454)"><g><path d="M 3.015625 0.09375 C 2.492188 0.09375 2.039062 -0.0078125 1.65625 -0.21875 C 1.269531 -0.4375 0.96875 -0.738281 0.75 -1.125 C 0.539062 -1.507812 0.4375 -1.960938 0.4375 -2.484375 C 0.4375 -3.003906 0.539062 -3.457031 0.75 -3.84375 C 0.96875 -4.226562 1.269531 -4.523438 1.65625 -4.734375 C 2.039062 -4.941406 2.5 -5.046875 3.03125 -5.046875 C 3.363281 -5.046875 3.6875 -4.992188 4 -4.890625 C 4.320312 -4.785156 4.582031 -4.640625 4.78125 -4.453125 L 4.40625 -3.53125 C 4.21875 -3.6875 4.015625 -3.800781 3.796875 -3.875 C 3.578125 -3.957031 3.363281 -4 3.15625 -4 C 2.707031 -4 2.363281 -3.863281 2.125 -3.59375 C 1.882812 -3.332031 1.765625 -2.960938 1.765625 -2.484375 C 1.765625 -1.992188 1.882812 -1.613281 2.125 -1.34375 C 2.363281 -1.070312 2.707031 -0.9375 3.15625 -0.9375 C 3.351562 -0.9375 3.5625 -0.976562 3.78125 -1.0625 C 4.007812 -1.144531 4.210938 -1.257812 4.390625 -1.40625 L 4.78125 -0.46875 C 4.570312 -0.289062 4.3125 -0.148438 4 -0.046875 C 3.6875 0.046875 3.359375 0.09375 3.015625 0.09375 Z M 3.015625 0.09375 "/></g></g></g><g fill="#000000" fill-opacity="1"><g transform="translate(174.225957, 96.301454)"><g><path d="M 3 0.09375 C 2.476562 0.09375 2.023438 -0.0078125 1.640625 -0.21875 C 1.253906 -0.425781 0.957031 -0.722656 0.75 -1.109375 C 0.539062 -1.492188 0.4375 -1.945312 0.4375 -2.46875 C 0.4375 -3 0.539062 -3.453125 0.75 -3.828125 C 0.957031 -4.210938 1.253906 -4.507812 1.640625 -4.71875 C 2.023438 -4.9375 2.476562 -5.046875 3 -5.046875 C 3.53125 -5.046875 3.984375 -4.9375 4.359375 -4.71875 C 4.742188 -4.507812 5.039062 -4.210938 5.25 -3.828125 C 5.457031 -3.441406 5.5625 -2.988281 5.5625 -2.46875 C 5.5625 -1.945312 5.457031 -1.492188 5.25 -1.109375 C 5.039062 -0.722656 4.742188 -0.425781 4.359375 -0.21875 C 3.984375 -0.0078125 3.53125 0.09375 3 0.09375 Z M 3 -0.921875 C 3.394531 -0.921875 3.703125 -1.054688 3.921875 -1.328125 C 4.148438 -1.597656 4.265625 -1.984375 4.265625 -2.484375 C 4.265625 -2.984375 4.148438 -3.363281 3.921875 -3.625 C 3.703125 -3.882812 3.394531 -4.015625 3 -4.015625 C 2.613281 -4.015625 2.304688 -3.882812 2.078125 -3.625 C 1.847656 -3.363281 1.734375 -2.984375 1.734375 -2.484375 C 1.734375 -1.984375 1.847656 -1.597656 2.078125 -1.328125 C 2.304688 -1.054688 2.613281 -0.921875 3 -0.921875 Z M 3 -0.921875 "/></g></g></g><g fill="#000000" fill-opacity="1"><g transform="translate(181.223584, 96.301454)"><g><path d="M 0.703125 0 L 0.703125 -4.9375 L 1.9375 -4.9375 L 1.9375 -3.9375 L 1.890625 -3.9375 C 2.046875 -4.289062 2.28125 -4.5625 2.59375 -4.75 C 2.90625 -4.945312 3.257812 -5.046875 3.65625 -5.046875 C 4.050781 -5.046875 4.378906 -4.96875 4.640625 -4.8125 C 4.910156 -4.664062 5.113281 -4.4375 5.25 -4.125 C 5.382812 -3.820312 5.453125 -3.4375 5.453125 -2.96875 L 5.453125 0 L 4.15625 0 L 4.15625 -2.90625 C 4.15625 -3.15625 4.117188 -3.359375 4.046875 -3.515625 C 3.984375 -3.679688 3.882812 -3.800781 3.75 -3.875 C 3.625 -3.957031 3.453125 -4 3.234375 -4 C 2.992188 -4 2.78125 -3.945312 2.59375 -3.84375 C 2.40625 -3.738281 2.257812 -3.585938 2.15625 -3.390625 C 2.0625 -3.191406 2.015625 -2.972656 2.015625 -2.734375 L 2.015625 0 Z M 0.703125 0 "/></g></g></g><g fill="#000000" fill-opacity="1"><g transform="translate(188.361161, 96.301454)"><g><path d="M 3.015625 0.09375 C 2.347656 0.09375 1.847656 -0.0703125 1.515625 -0.40625 C 1.179688 -0.738281 1.015625 -1.226562 1.015625 -1.875 L 1.015625 -3.9375 L 0.0625 -3.9375 L 0.0625 -4.9375 L 1.0625 -4.9375 L 1.0625 -6.375 L 2.3125 -6.375 L 2.3125 -4.9375 L 3.90625 -4.9375 L 3.90625 -3.9375 L 2.3125 -3.9375 L 2.3125 -1.9375 C 2.3125 -1.613281 2.382812 -1.375 2.53125 -1.21875 C 2.6875 -1.0625 2.921875 -0.984375 3.234375 -0.984375 C 3.347656 -0.984375 3.457031 -0.992188 3.5625 -1.015625 C 3.675781 -1.035156 3.789062 -1.0625 3.90625 -1.09375 L 4.09375 -0.125 C 3.945312 -0.0507812 3.78125 0 3.59375 0.03125 C 3.40625 0.0703125 3.210938 0.09375 3.015625 0.09375 Z M 3.015625 0.09375 "/></g></g></g><g fill="#000000" fill-opacity="1"><g transform="translate(193.459538, 96.301454)"><g><path d="M 3.234375 0.09375 C 2.640625 0.09375 2.132812 -0.00390625 1.71875 -0.203125 C 1.300781 -0.410156 0.984375 -0.707031 0.765625 -1.09375 C 0.546875 -1.488281 0.4375 -1.945312 0.4375 -2.46875 C 0.4375 -2.96875 0.539062 -3.410156 0.75 -3.796875 C 0.957031 -4.179688 1.25 -4.484375 1.625 -4.703125 C 2.007812 -4.929688 2.457031 -5.046875 2.96875 -5.046875 C 3.445312 -5.046875 3.859375 -4.941406 4.203125 -4.734375 C 4.546875 -4.535156 4.8125 -4.242188 5 -3.859375 C 5.195312 -3.484375 5.296875 -3.035156 5.296875 -2.515625 L 5.296875 -2.125 L 1.484375 -2.125 L 1.484375 -2.90625 L 4.375 -2.90625 L 4.203125 -2.734375 C 4.203125 -3.203125 4.097656 -3.550781 3.890625 -3.78125 C 3.679688 -4.019531 3.382812 -4.140625 3 -4.140625 C 2.726562 -4.140625 2.488281 -4.078125 2.28125 -3.953125 C 2.082031 -3.828125 1.925781 -3.648438 1.8125 -3.421875 C 1.707031 -3.203125 1.65625 -2.925781 1.65625 -2.59375 L 1.65625 -2.5 C 1.65625 -2.132812 1.710938 -1.832031 1.828125 -1.59375 C 1.953125 -1.351562 2.132812 -1.175781 2.375 -1.0625 C 2.613281 -0.957031 2.910156 -0.90625 3.265625 -0.90625 C 3.523438 -0.90625 3.789062 -0.941406 4.0625 -1.015625 C 4.34375 -1.085938 4.597656 -1.207031 4.828125 -1.375 L 5.1875 -0.5 C 4.9375 -0.300781 4.632812 -0.148438 4.28125 -0.046875 C 3.925781 0.046875 3.578125 0.09375 3.234375 0.09375 Z M 3.234375 0.09375 "/></g></g></g><g fill="#000000" fill-opacity="1"><g transform="translate(200.167286, 96.301454)"><g><path d="M 0.734375 0 L 0.734375 -4.9375 L 1.953125 -4.9375 L 1.953125 -3.9375 L 1.90625 -3.9375 C 1.988281 -4.15625 2.109375 -4.347656 2.265625 -4.515625 C 2.429688 -4.679688 2.625 -4.8125 2.84375 -4.90625 C 3.0625 -5 3.300781 -5.046875 3.5625 -5.046875 C 3.957031 -5.046875 4.285156 -4.945312 4.546875 -4.75 C 4.816406 -4.550781 5 -4.273438 5.09375 -3.921875 L 5.015625 -3.921875 C 5.148438 -4.242188 5.367188 -4.507812 5.671875 -4.71875 C 5.972656 -4.9375 6.332031 -5.046875 6.75 -5.046875 C 7.125 -5.046875 7.4375 -4.96875 7.6875 -4.8125 C 7.9375 -4.664062 8.125 -4.4375 8.25 -4.125 C 8.382812 -3.820312 8.453125 -3.4375 8.453125 -2.96875 L 8.453125 0 L 7.171875 0 L 7.171875 -2.921875 C 7.171875 -3.285156 7.109375 -3.554688 6.984375 -3.734375 C 6.859375 -3.910156 6.644531 -4 6.34375 -4 C 6.113281 -4 5.910156 -3.945312 5.734375 -3.84375 C 5.566406 -3.738281 5.441406 -3.585938 5.359375 -3.390625 C 5.273438 -3.203125 5.234375 -2.976562 5.234375 -2.71875 L 5.234375 0 L 3.953125 0 L 3.953125 -2.921875 C 3.953125 -3.285156 3.882812 -3.554688 3.75 -3.734375 C 3.625 -3.910156 3.414062 -4 3.125 -4 C 2.894531 -4 2.695312 -3.941406 2.53125 -3.828125 C 2.375 -3.722656 2.25 -3.570312 2.15625 -3.375 C 2.0625 -3.1875 2.015625 -2.96875 2.015625 -2.71875 L 2.015625 0 Z M 0.734375 0 "/></g></g></g><g fill="#000000" fill-opacity="1"><g transform="translate(210.333667, 96.301454)"><g><path d="M 0.703125 1.796875 L 0.703125 -4.9375 L 1.9375 -4.9375 L 1.9375 -3.921875 L 1.890625 -3.921875 C 2.003906 -4.265625 2.21875 -4.535156 2.53125 -4.734375 C 2.84375 -4.941406 3.207031 -5.046875 3.625 -5.046875 C 4.070312 -5.046875 4.457031 -4.9375 4.78125 -4.71875 C 5.113281 -4.507812 5.367188 -4.210938 5.546875 -3.828125 C 5.734375 -3.453125 5.828125 -3 5.828125 -2.46875 C 5.828125 -1.957031 5.738281 -1.507812 5.5625 -1.125 C 5.382812 -0.738281 5.128906 -0.4375 4.796875 -0.21875 C 4.472656 -0.0078125 4.082031 0.09375 3.625 0.09375 C 3.21875 0.09375 2.863281 0 2.5625 -0.1875 C 2.269531 -0.382812 2.066406 -0.640625 1.953125 -0.953125 L 2.015625 -0.953125 L 2.015625 1.796875 Z M 3.265625 -0.890625 C 3.648438 -0.890625 3.957031 -1.023438 4.1875 -1.296875 C 4.414062 -1.566406 4.53125 -1.960938 4.53125 -2.484375 C 4.53125 -2.992188 4.414062 -3.378906 4.1875 -3.640625 C 3.957031 -3.910156 3.648438 -4.046875 3.265625 -4.046875 C 2.878906 -4.046875 2.566406 -3.910156 2.328125 -3.640625 C 2.097656 -3.378906 1.984375 -2.992188 1.984375 -2.484375 C 1.984375 -1.960938 2.097656 -1.566406 2.328125 -1.296875 C 2.566406 -1.023438 2.878906 -0.890625 3.265625 -0.890625 Z M 3.265625 -0.890625 "/></g></g></g><g fill="#000000" fill-opacity="1"><g transform="translate(217.601191, 96.301454)"><g><path d="M 3 0.09375 C 2.476562 0.09375 2.023438 -0.0078125 1.640625 -0.21875 C 1.253906 -0.425781 0.957031 -0.722656 0.75 -1.109375 C 0.539062 -1.492188 0.4375 -1.945312 0.4375 -2.46875 C 0.4375 -3 0.539062 -3.453125 0.75 -3.828125 C 0.957031 -4.210938 1.253906 -4.507812 1.640625 -4.71875 C 2.023438 -4.9375 2.476562 -5.046875 3 -5.046875 C 3.53125 -5.046875 3.984375 -4.9375 4.359375 -4.71875 C 4.742188 -4.507812 5.039062 -4.210938 5.25 -3.828125 C 5.457031 -3.441406 5.5625 -2.988281 5.5625 -2.46875 C 5.5625 -1.945312 5.457031 -1.492188 5.25 -1.109375 C 5.039062 -0.722656 4.742188 -0.425781 4.359375 -0.21875 C 3.984375 -0.0078125 3.53125 0.09375 3 0.09375 Z M 3 -0.921875 C 3.394531 -0.921875 3.703125 -1.054688 3.921875 -1.328125 C 4.148438 -1.597656 4.265625 -1.984375 4.265625 -2.484375 C 4.265625 -2.984375 4.148438 -3.363281 3.921875 -3.625 C 3.703125 -3.882812 3.394531 -4.015625 3 -4.015625 C 2.613281 -4.015625 2.304688 -3.882812 2.078125 -3.625 C 1.847656 -3.363281 1.734375 -2.984375 1.734375 -2.484375 C 1.734375 -1.984375 1.847656 -1.597656 2.078125 -1.328125 C 2.304688 -1.054688 2.613281 -0.921875 3 -0.921875 Z M 3 -0.921875 "/></g></g></g><g fill="#000000" fill-opacity="1"><g transform="translate(224.598818, 96.301454)"><g><path d="M 0.703125 0 L 0.703125 -4.9375 L 1.921875 -4.9375 L 1.921875 -3.734375 L 1.875 -3.734375 C 1.976562 -4.117188 2.164062 -4.421875 2.4375 -4.640625 C 2.71875 -4.867188 3.078125 -4.992188 3.515625 -5.015625 L 3.984375 -5.0625 L 4.078125 -3.921875 L 3.265625 -3.84375 C 2.859375 -3.8125 2.546875 -3.679688 2.328125 -3.453125 C 2.117188 -3.234375 2.015625 -2.941406 2.015625 -2.578125 L 2.015625 0 Z M 0.703125 0 "/></g></g></g><g fill="#000000" fill-opacity="1"><g transform="translate(229.747172, 96.301454)"><g><path d="M 2.390625 0.09375 C 2.023438 0.09375 1.703125 0.0234375 1.421875 -0.109375 C 1.140625 -0.242188 0.914062 -0.425781 0.75 -0.65625 C 0.59375 -0.894531 0.515625 -1.160156 0.515625 -1.453125 C 0.515625 -1.828125 0.613281 -2.117188 0.8125 -2.328125 C 1.007812 -2.546875 1.320312 -2.703125 1.75 -2.796875 C 2.1875 -2.898438 2.753906 -2.953125 3.453125 -2.953125 L 4.046875 -2.953125 L 4.046875 -2.203125 L 3.5 -2.203125 C 3.1875 -2.203125 2.921875 -2.1875 2.703125 -2.15625 C 2.484375 -2.132812 2.304688 -2.097656 2.171875 -2.046875 C 2.035156 -2.003906 1.9375 -1.9375 1.875 -1.84375 C 1.8125 -1.757812 1.78125 -1.65625 1.78125 -1.53125 C 1.78125 -1.300781 1.859375 -1.125 2.015625 -1 C 2.179688 -0.875 2.40625 -0.8125 2.6875 -0.8125 C 2.90625 -0.8125 3.101562 -0.863281 3.28125 -0.96875 C 3.46875 -1.070312 3.613281 -1.21875 3.71875 -1.40625 C 3.832031 -1.59375 3.890625 -1.796875 3.890625 -2.015625 L 3.890625 -3.140625 C 3.890625 -3.472656 3.800781 -3.707031 3.625 -3.84375 C 3.457031 -3.988281 3.1875 -4.0625 2.8125 -4.0625 C 2.539062 -4.0625 2.257812 -4.019531 1.96875 -3.9375 C 1.6875 -3.851562 1.390625 -3.722656 1.078125 -3.546875 L 0.71875 -4.4375 C 0.914062 -4.5625 1.132812 -4.664062 1.375 -4.75 C 1.625 -4.84375 1.882812 -4.914062 2.15625 -4.96875 C 2.425781 -5.019531 2.6875 -5.046875 2.9375 -5.046875 C 3.414062 -5.046875 3.816406 -4.96875 4.140625 -4.8125 C 4.460938 -4.664062 4.707031 -4.441406 4.875 -4.140625 C 5.039062 -3.847656 5.125 -3.460938 5.125 -2.984375 L 5.125 0 L 3.984375 0 L 3.984375 -1.03125 L 4.015625 -1.03125 C 3.941406 -0.8125 3.828125 -0.613281 3.671875 -0.4375 C 3.523438 -0.269531 3.34375 -0.140625 3.125 -0.046875 C 2.914062 0.046875 2.671875 0.09375 2.390625 0.09375 Z M 2.390625 0.09375 "/></g></g></g><g fill="#000000" fill-opacity="1"><g transform="translate(236.564874, 96.301454)"><g><path d="M 0.703125 0 L 0.703125 -4.9375 L 1.921875 -4.9375 L 1.921875 -3.734375 L 1.875 -3.734375 C 1.976562 -4.117188 2.164062 -4.421875 2.4375 -4.640625 C 2.71875 -4.867188 3.078125 -4.992188 3.515625 -5.015625 L 3.984375 -5.0625 L 4.078125 -3.921875 L 3.265625 -3.84375 C 2.859375 -3.8125 2.546875 -3.679688 2.328125 -3.453125 C 2.117188 -3.234375 2.015625 -2.941406 2.015625 -2.578125 L 2.015625 0 Z M 0.703125 0 "/></g></g></g><g fill="#000000" fill-opacity="1"><g transform="translate(242.063142, 96.301454)"><g><path d="M 1.1875 1.796875 L 2.21875 -0.484375 L 2.21875 0.265625 L 0 -4.9375 L 1.375 -4.9375 L 2.8125 -1.203125 L 2.640625 -1.203125 L 4.09375 -4.9375 L 5.421875 -4.9375 L 2.53125 1.796875 Z M 1.1875 1.796875 "/></g></g></g><g fill="#000000" fill-opacity="1"><g transform="translate(248.471009, 96.301454)"><g/></g></g><g fill="#000000" fill-opacity="1"><g transform="translate(252.289891, 96.301454)"><g><path d="M 2.390625 0.09375 C 2.023438 0.09375 1.703125 0.0234375 1.421875 -0.109375 C 1.140625 -0.242188 0.914062 -0.425781 0.75 -0.65625 C 0.59375 -0.894531 0.515625 -1.160156 0.515625 -1.453125 C 0.515625 -1.828125 0.613281 -2.117188 0.8125 -2.328125 C 1.007812 -2.546875 1.320312 -2.703125 1.75 -2.796875 C 2.1875 -2.898438 2.753906 -2.953125 3.453125 -2.953125 L 4.046875 -2.953125 L 4.046875 -2.203125 L 3.5 -2.203125 C 3.1875 -2.203125 2.921875 -2.1875 2.703125 -2.15625 C 2.484375 -2.132812 2.304688 -2.097656 2.171875 -2.046875 C 2.035156 -2.003906 1.9375 -1.9375 1.875 -1.84375 C 1.8125 -1.757812 1.78125 -1.65625 1.78125 -1.53125 C 1.78125 -1.300781 1.859375 -1.125 2.015625 -1 C 2.179688 -0.875 2.40625 -0.8125 2.6875 -0.8125 C 2.90625 -0.8125 3.101562 -0.863281 3.28125 -0.96875 C 3.46875 -1.070312 3.613281 -1.21875 3.71875 -1.40625 C 3.832031 -1.59375 3.890625 -1.796875 3.890625 -2.015625 L 3.890625 -3.140625 C 3.890625 -3.472656 3.800781 -3.707031 3.625 -3.84375 C 3.457031 -3.988281 3.1875 -4.0625 2.8125 -4.0625 C 2.539062 -4.0625 2.257812 -4.019531 1.96875 -3.9375 C 1.6875 -3.851562 1.390625 -3.722656 1.078125 -3.546875 L 0.71875 -4.4375 C 0.914062 -4.5625 1.132812 -4.664062 1.375 -4.75 C 1.625 -4.84375 1.882812 -4.914062 2.15625 -4.96875 C 2.425781 -5.019531 2.6875 -5.046875 2.9375 -5.046875 C 3.414062 -5.046875 3.816406 -4.96875 4.140625 -4.8125 C 4.460938 -4.664062 4.707031 -4.441406 4.875 -4.140625 C 5.039062 -3.847656 5.125 -3.460938 5.125 -2.984375 L 5.125 0 L 3.984375 0 L 3.984375 -1.03125 L 4.015625 -1.03125 C 3.941406 -0.8125 3.828125 -0.613281 3.671875 -0.4375 C 3.523438 -0.269531 3.34375 -0.140625 3.125 -0.046875 C 2.914062 0.046875 2.671875 0.09375 2.390625 0.09375 Z M 2.390625 0.09375 "/></g></g></g><g fill="#000000" fill-opacity="1"><g transform="translate(259.107594, 96.301454)"><g><path d="M 0.703125 0 L 0.703125 -4.9375 L 1.921875 -4.9375 L 1.921875 -3.734375 L 1.875 -3.734375 C 1.976562 -4.117188 2.164062 -4.421875 2.4375 -4.640625 C 2.71875 -4.867188 3.078125 -4.992188 3.515625 -5.015625 L 3.984375 -5.0625 L 4.078125 -3.921875 L 3.265625 -3.84375 C 2.859375 -3.8125 2.546875 -3.679688 2.328125 -3.453125 C 2.117188 -3.234375 2.015625 -2.941406 2.015625 -2.578125 L 2.015625 0 Z M 0.703125 0 "/></g></g></g><g fill="#000000" fill-opacity="1"><g transform="translate(264.585869, 96.301454)"><g><path d="M 3.015625 0.09375 C 2.347656 0.09375 1.847656 -0.0703125 1.515625 -0.40625 C 1.179688 -0.738281 1.015625 -1.226562 1.015625 -1.875 L 1.015625 -3.9375 L 0.0625 -3.9375 L 0.0625 -4.9375 L 1.0625 -4.9375 L 1.0625 -6.375 L 2.3125 -6.375 L 2.3125 -4.9375 L 3.90625 -4.9375 L 3.90625 -3.9375 L 2.3125 -3.9375 L 2.3125 -1.9375 C 2.3125 -1.613281 2.382812 -1.375 2.53125 -1.21875 C 2.6875 -1.0625 2.921875 -0.984375 3.234375 -0.984375 C 3.347656 -0.984375 3.457031 -0.992188 3.5625 -1.015625 C 3.675781 -1.035156 3.789062 -1.0625 3.90625 -1.09375 L 4.09375 -0.125 C 3.945312 -0.0507812 3.78125 0 3.59375 0.03125 C 3.40625 0.0703125 3.210938 0.09375 3.015625 0.09375 Z M 3.015625 0.09375 "/></g></g></g><g fill="#000000" fill-opacity="1"><g transform="translate(269.736053, 96.301454)"><g/></g></g></svg>